<svg width="24" height="24" viewBox="0 0 24 24" fill="none" xmlns="http://www.w3.org/2000/svg">
<path d="M11.2934 14.7076L7.29341 10.7076C7.11125 10.519 7.01045 10.2664 7.01273 10.0042C7.01501 9.74197 7.12018 9.49116 7.30559 9.30575C7.491 9.12034 7.74181 9.01517 8.00401 9.0129C8.2662 9.01062 8.5188 9.11141 8.70741 9.29357L12.0004 12.5866L15.2934 9.29357C15.3857 9.19806 15.496 9.12188 15.618 9.06947C15.74 9.01706 15.8712 8.98947 16.004 8.98832C16.1368 8.98717 16.2685 9.01247 16.3914 9.06275C16.5143 9.11303 16.6259 9.18728 16.7198 9.28118C16.8137 9.37507 16.8879 9.48672 16.9382 9.60962C16.9885 9.73251 17.0138 9.86419 17.0127 9.99697C17.0115 10.1298 16.9839 10.261 16.9315 10.383C16.8791 10.505 16.8029 10.6153 16.7074 10.7076L12.7074 14.7076C12.5199 14.895 12.2656 15.0004 12.0004 15.0004C11.7352 15.0004 11.4809 14.895 11.2934 14.7076Z" fill="#00C2FF"/>
</svg>
